<svg xmlns="http://www.w3.org/2000/svg" x="0px" y="0px" width="100" height="100" viewBox="0 0 100 100">
    <path fill="#fec933" d="m81.35,64.03c-1.03-23.44-13.67-42.18-29.51-43.75l2.27-3.93c1.83-3.17-.46-7.12-4.11-7.12s-5.94,3.96-4.11,7.12l2.23,3.87c-16.17,1.17-29.15,20.24-30.1,44.1-4.01,1.88-6.35,4.14-6.35,6.56,0,5.49,11.96,10.11,28.22,11.48.36,4.7,4.74,8.42,10.11,8.42s9.74-3.71,10.11-8.42c16.26-1.38,28.22-6,28.22-11.48,0-2.55-2.59-4.91-6.98-6.85Z"></path><circle cx="61.5" cy="61.51" r="5.5" fill="#fff"></circle><circle cx="61.5" cy="61.51" r="2.5" fill="#4a254b"></circle><path fill="#4a254b" d="m50,72.01c2.57,0,4.68-1.93,4.97-4.42.03-.3-.19-.58-.49-.58-1.73,0-7.22,0-8.95,0-.31,0-.53.27-.49.58.29,2.49,2.4,4.42,4.97,4.42Z"></path><circle cx="38.5" cy="61.51" r="5.5" fill="#fff"></circle><circle cx="38.5" cy="61.51" r="2.5" fill="#4a254b"></circle><path fill="#4a254b" d="m50,83.28c-.28,0-.5-.22-.5-.5s.22-.5.5-.5c4.54,0,8.99-.24,13.21-.73.27-.04.52.16.55.44.03.27-.17.52-.44.55-4.26.49-8.74.73-13.32.73Z"></path>
</svg>